<?xml version="1.0" encoding="UTF-8" standalone="no"?>
<svg
   xmlns:dc="http://purl.org/dc/elements/1.1/"
   xmlns:cc="http://creativecommons.org/ns#"
   xmlns:rdf="http://www.w3.org/1999/02/22-rdf-syntax-ns#"
   xmlns:svg="http://www.w3.org/2000/svg"
   xmlns="http://www.w3.org/2000/svg"
   xmlns:xlink="http://www.w3.org/1999/xlink"
   xmlns:sodipodi="http://sodipodi.sourceforge.net/DTD/sodipodi-0.dtd"
   xmlns:inkscape="http://www.inkscape.org/namespaces/inkscape"
   version="1.1"
   width="1800"
   height="1200"
   id="CScout_logo"
   sodipodi:version="0.32"
   inkscape:version="0.46"
   sodipodi:docname="logo.svg"
   sodipodi:docbase="C:\dds\src\Research\cscout"
   inkscape:export-filename="C:\dds\src\Research\cscout\logo.png"
   inkscape:export-xdpi="5.1799998"
   inkscape:export-ydpi="5.1799998"
   inkscape:output_extension="org.inkscape.output.svg.inkscape">
  <metadata
     id="metadata2903">
    <rdf:RDF>
      <cc:Work
         rdf:about="">
        <dc:format>image/svg+xml</dc:format>
        <dc:type
           rdf:resource="http://purl.org/dc/dcmitype/StillImage" />
      </cc:Work>
    </rdf:RDF>
  </metadata>
  <sodipodi:namedview
     inkscape:window-height="992"
     inkscape:window-width="1400"
     inkscape:pageshadow="2"
     inkscape:pageopacity="0.0"
     guidetolerance="10.0"
     gridtolerance="10.0"
     objecttolerance="10.0"
     borderopacity="1.0"
     bordercolor="#666666"
     pagecolor="#ffffff"
     id="base"
     inkscape:zoom="0.31166667"
     inkscape:cx="1353.4752"
     inkscape:cy="845.29685"
     inkscape:window-x="216"
     inkscape:window-y="25"
     inkscape:current-layer="CScout_logo"
     showgrid="false" />
  <desc
     id="desc2872">CScout Logo</desc>
  <defs
     id="defs2874">
    <inkscape:perspective
       sodipodi:type="inkscape:persp3d"
       inkscape:vp_x="0 : 600 : 1"
       inkscape:vp_y="0 : 1000 : 0"
       inkscape:vp_z="1800 : 600 : 1"
       inkscape:persp3d-origin="900 : 400 : 1"
       id="perspective21" />
    <g
       id="f">
      <rect
         x="-50"
         y="-30"
         height="60"
         width="100"
         fill="#28166f"
         id="rect2877" />
      <g
         transform="translate(0,-20)"
         fill="#fff"
         id="g2879">
        <path
           d="M -1.2116,27.8178 C -1.2116,22.1752 -2.0914,20.4715 -4.5417,13.9804 C -5.7090,10.8879 -5.0241,7.1025 -2.8585,3.6009 C -2.0824,2.3460 -1.1136,1.2135 0,0 C 1.1136,1.2135 2.0824,2.3460 2.8585,3.6009 C 5.0241,7.1025 5.7090,10.8879 4.5417,13.9804 C 2.0914,20.4715 1.2116,22.1752 1.2116,27.8178 z"
           id="path2881" />
        <path
           d="M 2.9221,27.6725 C 2.9221,21.7209 5.2387,17.8293 8.5007,16.6604 C 9.9492,16.1414 11.8076,16.3869 13.5193,18.1070 C 15.6379,20.2360 16.2551,26.1004 10.0355,27.2283 C 10.6938,26.2724 10.6546,24.1467 9.3215,23.4409 C 8.3311,22.9165 7.2090,23.1877 6.6462,23.5643 C 5.8225,24.1156 4.9171,25.6702 4.9672,27.6725 z"
           id="rwi" />
        <path
           d="M 1.7773,30.1835 C 1.7899,32.1913 2.7952,33.5181 4.5165,34.257 C 4.2948,34.9549 3.2566,36.3776 1.8314,36.2812 C 1.5499,37.7870 1.2822,38.6324 0,40 C -1.2822,38.6324 -1.5499,37.7870 -1.8314,36.2812 C -3.2566,36.3776 -4.2948,34.9549 -4.5165,34.257 C -2.7952,33.5181 -1.7899,32.1913 -1.7773,30.1835 z"
           id="path2884" />
        <use
           xlink:href="#rwi"
           transform="scale(-1,1)"
           id="use2886" />
        <rect
           height="3.218"
           width="15.846"
           x="-7.923"
           y="27.33077"
           id="rect2888" />
      </g>
    </g>
  </defs>
  <rect
     style="opacity:1;fill:none;fill-opacity:1;stroke:none;stroke-width:39.70000076;stroke-linecap:round;stroke-linejoin:round;stroke-miterlimit:0.2;stroke-dasharray:none;stroke-opacity:1"
     id="rect6489"
     width="266.31015"
     height="478.07486"
     x="-410.69519"
     y="1873.7968" />
  <g
     id="g2394"
     style="fill:#00ffff">
    <path
       sodipodi:nodetypes="cccccccccccc"
       d="M 914.2566,923.00644 C 914.2566,923.00644 943.92577,898.82259 939.25415,866.12134 C 939.25415,866.12134 971.95542,868.45715 983.63442,833.42008 C 983.63442,833.42008 931.43663,810.44815 927.57515,730.64473 C 920.56776,585.82494 988.30599,501.73605 988.30599,429.3261 C 988.30604,341.3994 915.76657,293.84956 915.76657,293.84956 M 914.51564,923.41934 C 914.51564,923.41934 883.19483,898.82259 887.86646,866.12134 C 887.86646,866.12134 855.1652,868.45715 843.4862,833.42008 C 843.4862,833.42008 895.68398,810.44815 899.54546,730.64473 C 906.55284,585.82494 838.81463,501.73605 838.81463,429.3261 C 838.81457,341.3994 915.89609,293.84956 915.89609,293.84956"
       style="fill:#00ffff;fill-opacity:1;fill-rule:evenodd;stroke:black;stroke-width:0.51476800000000000px;stroke-linecap:butt;stroke-linejoin:miter;stroke-opacity:1"
       id="path6465" />
    <path
       sodipodi:nodetypes="ccccccccc"
       id="path6473"
       d="M 1079.3031,716.39168 C 1079.3031,716.39168 1132.1563,714.73999 1160.2345,661.88686 C 1160.2345,661.88686 1189.9645,610.6853 1137.1113,562.78712 C 1137.1113,562.78712 1111.0183,528.76121 1036.3598,562.78712 C 969.13191,593.38745 953.77674,650.32522 947.1701,709.78504 C 947.1701,709.78504 953.31036,826.2802 1008.2816,825.40138 C 996.81938,794.63811 993.41666,752.72822 1000.0233,711.43668 C 1000.0233,711.43668 1004.9783,651.97685 1056.1798,651.97685 C 1056.1798,651.97685 1100.7747,656.93186 1079.3031,716.39168 z "
       style="fill:#00ffff;fill-opacity:1;fill-rule:evenodd;stroke:black;stroke-width:0.51476800000000000px;stroke-linecap:butt;stroke-linejoin:miter;stroke-opacity:1" />
    <path
       style="fill:#00ffff;fill-opacity:1;fill-rule:evenodd;stroke:black;stroke-width:0.51476800000000000px;stroke-linecap:butt;stroke-linejoin:miter;stroke-opacity:1"
       d="M 750.69664,716.39168 C 750.69664,716.39168 697.84345,714.73999 669.76518,661.88686 C 669.76518,661.88686 640.03526,610.6853 692.88845,562.78712 C 692.88845,562.78712 718.98137,528.76121 793.63987,562.78712 C 860.8678,593.38745 876.22297,650.32522 882.82961,709.78504 C 882.82961,709.78504 876.68935,826.2802 821.7181,825.40138 C 833.18034,794.63811 836.58306,752.72822 829.97642,711.43668 C 829.97642,711.43668 825.02142,651.97685 773.81992,651.97685 C 773.81992,651.97685 729.22505,656.93186 750.69664,716.39168 z "
       id="path6475"
       sodipodi:nodetypes="ccccccccc" />
    <rect
       y="708.10187"
       x="803.44403"
       height="66.129387"
       width="221.38638"
       id="rect6477"
       style="fill:#00ffff;fill-opacity:1;stroke:black;stroke-width:0.45176085999999999;stroke-linecap:round;stroke-linejoin:miter;stroke-miterlimit:4;stroke-dasharray:none;stroke-opacity:1" />
  </g>
  <path
     sodipodi:type="arc"
     style="fill:none;fill-opacity:1;stroke:#2d54ff;stroke-width:111.69999695;stroke-linecap:round;stroke-linejoin:miter;stroke-miterlimit:4;stroke-dasharray:none;stroke-opacity:1"
     id="path12696"
     sodipodi:cx="1034.7594"
     sodipodi:cy="2244.385"
     sodipodi:rx="508.55609"
     sodipodi:ry="428.34225"
     d="M 1470.575,2465.1406 A 508.55609,428.34225 0 1 1 1475.1819,2030.2139"
     sodipodi:start="0.54144175"
     sodipodi:end="5.7595865"
     sodipodi:open="true"
     transform="matrix(0.817277,0,0,0.899989,72.15289,-1409.235)" />
</svg>
